# xmcd CD database file
#
# Track frame offsets:
#	150
#	17348
#	35562
#	52756
#	69500
#	87434
#	100756
#	113835
#	128579
#	149548
#	166961
#	180160
#
# Disc length: 2675 seconds
#
# Revision: 0
# Processed by: cddbd v1.5.2PL0 Copyright (c) Steve Scherf et al.
# Submitted via: CDex 1.51
#
DISCID=8f0a710c
DTITLE=Louisiana Red - Memphis Mojo
DYEAR=2011
DGENRE=Blues
TTITLE0=Goodbye Blues
TTITLE1=I Had Trouble All My Life
TTITLE2=See That My Grave Is Kept Clean
TTITLE3=No More Whiskey
TTITLE4=Yolanda
TTITLE5=Just Take Your Time
TTITLE6=Your Lovin' Man
TTITLE7=Boogie Woogie Boogie
TTITLE8=I'm Gettin' Tired
TTITLE9=So Long, So Long
TTITLE10=Why Don`t You Come On Home
TTITLE11=Grandmother`s Death
EXTD=YEAR: 2011
EXTT0=
EXTT1=
EXTT2=
EXTT3=
EXTT4=
EXTT5=
EXTT6=
EXTT7=
EXTT8=
EXTT9=
EXTT10=
EXTT11=
PLAYORDER=
